<mxfile host="app.diagrams.net" modified="2023-05-12T06:43:05.198Z" agent="Mozilla/5.0 (Windows NT 10.0; Win64; x64) AppleWebKit/537.36 (KHTML, like Gecko) Chrome/113.0.0.0 Safari/537.36" etag="0vCNj-gh_dm3D1QAha5x" version="21.2.6" type="device">
  <diagram name="Page-1" id="T-JXDKG9tNt797dnqvVa">
    <mxGraphModel dx="1050" dy="581" grid="1" gridSize="10" guides="1" tooltips="1" connect="1" arrows="1" fold="1" page="1" pageScale="1" pageWidth="850" pageHeight="1100" math="0" shadow="0">
      <root>
        <mxCell id="0" />
        <mxCell id="1" parent="0" />
        <mxCell id="6O_0DVJVewbivAjLtHZU-1" value="" style="rounded=0;whiteSpace=wrap;html=1;" vertex="1" parent="1">
          <mxGeometry x="40" y="40" width="1010" height="540" as="geometry" />
        </mxCell>
        <mxCell id="6O_0DVJVewbivAjLtHZU-22" style="edgeStyle=orthogonalEdgeStyle;rounded=0;orthogonalLoop=1;jettySize=auto;html=1;exitX=1;exitY=0.5;exitDx=0;exitDy=0;entryX=0;entryY=0.5;entryDx=0;entryDy=0;" edge="1" parent="1" source="6O_0DVJVewbivAjLtHZU-2" target="6O_0DVJVewbivAjLtHZU-3">
          <mxGeometry relative="1" as="geometry" />
        </mxCell>
        <mxCell id="6O_0DVJVewbivAjLtHZU-2" value="1" style="rounded=1;whiteSpace=wrap;html=1;" vertex="1" parent="1">
          <mxGeometry x="180" y="120" width="120" height="60" as="geometry" />
        </mxCell>
        <mxCell id="6O_0DVJVewbivAjLtHZU-23" style="edgeStyle=orthogonalEdgeStyle;rounded=0;orthogonalLoop=1;jettySize=auto;html=1;exitX=1;exitY=0.5;exitDx=0;exitDy=0;entryX=0;entryY=0.5;entryDx=0;entryDy=0;" edge="1" parent="1" source="6O_0DVJVewbivAjLtHZU-3" target="6O_0DVJVewbivAjLtHZU-4">
          <mxGeometry relative="1" as="geometry" />
        </mxCell>
        <mxCell id="6O_0DVJVewbivAjLtHZU-3" value="2" style="rounded=1;whiteSpace=wrap;html=1;" vertex="1" parent="1">
          <mxGeometry x="350" y="120" width="120" height="60" as="geometry" />
        </mxCell>
        <mxCell id="6O_0DVJVewbivAjLtHZU-37" style="edgeStyle=orthogonalEdgeStyle;rounded=0;orthogonalLoop=1;jettySize=auto;html=1;exitX=1;exitY=0.5;exitDx=0;exitDy=0;" edge="1" parent="1" source="6O_0DVJVewbivAjLtHZU-4" target="6O_0DVJVewbivAjLtHZU-33">
          <mxGeometry relative="1" as="geometry" />
        </mxCell>
        <mxCell id="6O_0DVJVewbivAjLtHZU-4" value="3" style="rounded=1;whiteSpace=wrap;html=1;" vertex="1" parent="1">
          <mxGeometry x="520" y="120" width="120" height="60" as="geometry" />
        </mxCell>
        <mxCell id="6O_0DVJVewbivAjLtHZU-24" style="edgeStyle=orthogonalEdgeStyle;rounded=0;orthogonalLoop=1;jettySize=auto;html=1;exitX=1;exitY=0.5;exitDx=0;exitDy=0;entryX=0;entryY=0.5;entryDx=0;entryDy=0;fillColor=#f8cecc;strokeColor=#B84D1F;" edge="1" parent="1" source="6O_0DVJVewbivAjLtHZU-5" target="6O_0DVJVewbivAjLtHZU-6">
          <mxGeometry relative="1" as="geometry" />
        </mxCell>
        <mxCell id="6O_0DVJVewbivAjLtHZU-5" value="4" style="rounded=1;whiteSpace=wrap;html=1;" vertex="1" parent="1">
          <mxGeometry x="180" y="230" width="120" height="60" as="geometry" />
        </mxCell>
        <mxCell id="6O_0DVJVewbivAjLtHZU-25" style="edgeStyle=orthogonalEdgeStyle;rounded=0;orthogonalLoop=1;jettySize=auto;html=1;exitX=1;exitY=0.5;exitDx=0;exitDy=0;entryX=0;entryY=0.5;entryDx=0;entryDy=0;" edge="1" parent="1" source="6O_0DVJVewbivAjLtHZU-6" target="6O_0DVJVewbivAjLtHZU-7">
          <mxGeometry relative="1" as="geometry" />
        </mxCell>
        <mxCell id="6O_0DVJVewbivAjLtHZU-6" value="1" style="rounded=1;whiteSpace=wrap;html=1;" vertex="1" parent="1">
          <mxGeometry x="350" y="230" width="120" height="60" as="geometry" />
        </mxCell>
        <mxCell id="6O_0DVJVewbivAjLtHZU-26" style="edgeStyle=orthogonalEdgeStyle;rounded=0;orthogonalLoop=1;jettySize=auto;html=1;exitX=1;exitY=0.5;exitDx=0;exitDy=0;entryX=0;entryY=0.5;entryDx=0;entryDy=0;" edge="1" parent="1" source="6O_0DVJVewbivAjLtHZU-7" target="6O_0DVJVewbivAjLtHZU-8">
          <mxGeometry relative="1" as="geometry" />
        </mxCell>
        <mxCell id="6O_0DVJVewbivAjLtHZU-7" value="2" style="rounded=1;whiteSpace=wrap;html=1;" vertex="1" parent="1">
          <mxGeometry x="520" y="230" width="120" height="60" as="geometry" />
        </mxCell>
        <mxCell id="6O_0DVJVewbivAjLtHZU-38" style="edgeStyle=orthogonalEdgeStyle;rounded=0;orthogonalLoop=1;jettySize=auto;html=1;exitX=1;exitY=0.5;exitDx=0;exitDy=0;" edge="1" parent="1" source="6O_0DVJVewbivAjLtHZU-8" target="6O_0DVJVewbivAjLtHZU-34">
          <mxGeometry relative="1" as="geometry" />
        </mxCell>
        <mxCell id="6O_0DVJVewbivAjLtHZU-8" value="3" style="rounded=1;whiteSpace=wrap;html=1;" vertex="1" parent="1">
          <mxGeometry x="680" y="230" width="120" height="60" as="geometry" />
        </mxCell>
        <mxCell id="6O_0DVJVewbivAjLtHZU-27" style="edgeStyle=orthogonalEdgeStyle;rounded=0;orthogonalLoop=1;jettySize=auto;html=1;exitX=1;exitY=0.5;exitDx=0;exitDy=0;entryX=0;entryY=0.5;entryDx=0;entryDy=0;strokeColor=#eb1e1e;" edge="1" parent="1" source="6O_0DVJVewbivAjLtHZU-9" target="6O_0DVJVewbivAjLtHZU-10">
          <mxGeometry relative="1" as="geometry" />
        </mxCell>
        <mxCell id="6O_0DVJVewbivAjLtHZU-9" value="4" style="rounded=1;whiteSpace=wrap;html=1;" vertex="1" parent="1">
          <mxGeometry x="180" y="340" width="120" height="60" as="geometry" />
        </mxCell>
        <mxCell id="6O_0DVJVewbivAjLtHZU-28" style="edgeStyle=orthogonalEdgeStyle;rounded=0;orthogonalLoop=1;jettySize=auto;html=1;exitX=1;exitY=0.5;exitDx=0;exitDy=0;entryX=0;entryY=0.5;entryDx=0;entryDy=0;" edge="1" parent="1" source="6O_0DVJVewbivAjLtHZU-10" target="6O_0DVJVewbivAjLtHZU-11">
          <mxGeometry relative="1" as="geometry" />
        </mxCell>
        <mxCell id="6O_0DVJVewbivAjLtHZU-10" value="1" style="rounded=1;whiteSpace=wrap;html=1;" vertex="1" parent="1">
          <mxGeometry x="350" y="340" width="120" height="60" as="geometry" />
        </mxCell>
        <mxCell id="6O_0DVJVewbivAjLtHZU-29" style="edgeStyle=orthogonalEdgeStyle;rounded=0;orthogonalLoop=1;jettySize=auto;html=1;exitX=1;exitY=0.5;exitDx=0;exitDy=0;entryX=0;entryY=0.5;entryDx=0;entryDy=0;" edge="1" parent="1" source="6O_0DVJVewbivAjLtHZU-11" target="6O_0DVJVewbivAjLtHZU-12">
          <mxGeometry relative="1" as="geometry" />
        </mxCell>
        <mxCell id="6O_0DVJVewbivAjLtHZU-11" value="2" style="rounded=1;whiteSpace=wrap;html=1;" vertex="1" parent="1">
          <mxGeometry x="520" y="340" width="120" height="60" as="geometry" />
        </mxCell>
        <mxCell id="6O_0DVJVewbivAjLtHZU-39" style="edgeStyle=orthogonalEdgeStyle;rounded=0;orthogonalLoop=1;jettySize=auto;html=1;exitX=1;exitY=0.5;exitDx=0;exitDy=0;" edge="1" parent="1" source="6O_0DVJVewbivAjLtHZU-12" target="6O_0DVJVewbivAjLtHZU-35">
          <mxGeometry relative="1" as="geometry" />
        </mxCell>
        <mxCell id="6O_0DVJVewbivAjLtHZU-12" value="3" style="rounded=1;whiteSpace=wrap;html=1;" vertex="1" parent="1">
          <mxGeometry x="680" y="340" width="120" height="60" as="geometry" />
        </mxCell>
        <mxCell id="6O_0DVJVewbivAjLtHZU-30" style="edgeStyle=orthogonalEdgeStyle;rounded=0;orthogonalLoop=1;jettySize=auto;html=1;exitX=1;exitY=0.5;exitDx=0;exitDy=0;entryX=0;entryY=0.5;entryDx=0;entryDy=0;" edge="1" parent="1" source="6O_0DVJVewbivAjLtHZU-13" target="6O_0DVJVewbivAjLtHZU-14">
          <mxGeometry relative="1" as="geometry" />
        </mxCell>
        <mxCell id="6O_0DVJVewbivAjLtHZU-13" value="4" style="rounded=1;whiteSpace=wrap;html=1;" vertex="1" parent="1">
          <mxGeometry x="180" y="440" width="120" height="60" as="geometry" />
        </mxCell>
        <mxCell id="6O_0DVJVewbivAjLtHZU-31" style="edgeStyle=orthogonalEdgeStyle;rounded=0;orthogonalLoop=1;jettySize=auto;html=1;exitX=1;exitY=0.5;exitDx=0;exitDy=0;entryX=0;entryY=0.5;entryDx=0;entryDy=0;" edge="1" parent="1" source="6O_0DVJVewbivAjLtHZU-14" target="6O_0DVJVewbivAjLtHZU-15">
          <mxGeometry relative="1" as="geometry" />
        </mxCell>
        <mxCell id="6O_0DVJVewbivAjLtHZU-14" value="1" style="rounded=1;whiteSpace=wrap;html=1;" vertex="1" parent="1">
          <mxGeometry x="350" y="440" width="120" height="60" as="geometry" />
        </mxCell>
        <mxCell id="6O_0DVJVewbivAjLtHZU-32" style="edgeStyle=orthogonalEdgeStyle;rounded=0;orthogonalLoop=1;jettySize=auto;html=1;exitX=1;exitY=0.5;exitDx=0;exitDy=0;entryX=0;entryY=0.5;entryDx=0;entryDy=0;" edge="1" parent="1" source="6O_0DVJVewbivAjLtHZU-15" target="6O_0DVJVewbivAjLtHZU-16">
          <mxGeometry relative="1" as="geometry" />
        </mxCell>
        <mxCell id="6O_0DVJVewbivAjLtHZU-15" value="2" style="rounded=1;whiteSpace=wrap;html=1;" vertex="1" parent="1">
          <mxGeometry x="520" y="440" width="120" height="60" as="geometry" />
        </mxCell>
        <mxCell id="6O_0DVJVewbivAjLtHZU-40" style="edgeStyle=orthogonalEdgeStyle;rounded=0;orthogonalLoop=1;jettySize=auto;html=1;exitX=1;exitY=0.5;exitDx=0;exitDy=0;" edge="1" parent="1" source="6O_0DVJVewbivAjLtHZU-16" target="6O_0DVJVewbivAjLtHZU-36">
          <mxGeometry relative="1" as="geometry" />
        </mxCell>
        <mxCell id="6O_0DVJVewbivAjLtHZU-16" value="3" style="rounded=1;whiteSpace=wrap;html=1;" vertex="1" parent="1">
          <mxGeometry x="680" y="440" width="120" height="60" as="geometry" />
        </mxCell>
        <mxCell id="6O_0DVJVewbivAjLtHZU-17" value="Original" style="text;html=1;strokeColor=none;fillColor=none;align=center;verticalAlign=middle;whiteSpace=wrap;rounded=0;" vertex="1" parent="1">
          <mxGeometry x="80" y="140" width="60" height="30" as="geometry" />
        </mxCell>
        <mxCell id="6O_0DVJVewbivAjLtHZU-18" value="Step1&amp;nbsp;" style="text;html=1;strokeColor=none;fillColor=none;align=center;verticalAlign=middle;whiteSpace=wrap;rounded=0;" vertex="1" parent="1">
          <mxGeometry x="80" y="245" width="60" height="30" as="geometry" />
        </mxCell>
        <mxCell id="6O_0DVJVewbivAjLtHZU-19" value="Step 2" style="text;html=1;strokeColor=none;fillColor=none;align=center;verticalAlign=middle;whiteSpace=wrap;rounded=0;" vertex="1" parent="1">
          <mxGeometry x="80" y="360" width="60" height="30" as="geometry" />
        </mxCell>
        <mxCell id="6O_0DVJVewbivAjLtHZU-20" value="Finish" style="text;html=1;strokeColor=none;fillColor=none;align=center;verticalAlign=middle;whiteSpace=wrap;rounded=0;" vertex="1" parent="1">
          <mxGeometry x="80" y="460" width="60" height="30" as="geometry" />
        </mxCell>
        <mxCell id="6O_0DVJVewbivAjLtHZU-33" value="Null" style="text;html=1;strokeColor=none;fillColor=none;align=center;verticalAlign=middle;whiteSpace=wrap;rounded=0;" vertex="1" parent="1">
          <mxGeometry x="710" y="135" width="60" height="30" as="geometry" />
        </mxCell>
        <mxCell id="6O_0DVJVewbivAjLtHZU-34" value="Null" style="text;html=1;strokeColor=none;fillColor=none;align=center;verticalAlign=middle;whiteSpace=wrap;rounded=0;" vertex="1" parent="1">
          <mxGeometry x="880" y="245" width="60" height="30" as="geometry" />
        </mxCell>
        <mxCell id="6O_0DVJVewbivAjLtHZU-35" value="Null" style="text;html=1;strokeColor=none;fillColor=none;align=center;verticalAlign=middle;whiteSpace=wrap;rounded=0;" vertex="1" parent="1">
          <mxGeometry x="890" y="355" width="60" height="30" as="geometry" />
        </mxCell>
        <mxCell id="6O_0DVJVewbivAjLtHZU-36" value="Null" style="text;html=1;strokeColor=none;fillColor=none;align=center;verticalAlign=middle;whiteSpace=wrap;rounded=0;" vertex="1" parent="1">
          <mxGeometry x="890" y="455" width="60" height="30" as="geometry" />
        </mxCell>
        <mxCell id="6O_0DVJVewbivAjLtHZU-41" value="New Node" style="text;html=1;strokeColor=none;fillColor=none;align=center;verticalAlign=middle;whiteSpace=wrap;rounded=0;" vertex="1" parent="1">
          <mxGeometry x="210" y="290" width="60" height="30" as="geometry" />
        </mxCell>
        <mxCell id="6O_0DVJVewbivAjLtHZU-42" value="Head" style="text;html=1;strokeColor=none;fillColor=none;align=center;verticalAlign=middle;whiteSpace=wrap;rounded=0;" vertex="1" parent="1">
          <mxGeometry x="380" y="200" width="60" height="30" as="geometry" />
        </mxCell>
        <mxCell id="6O_0DVJVewbivAjLtHZU-43" value="Head" style="text;html=1;align=center;verticalAlign=middle;whiteSpace=wrap;rounded=0;fontColor=#FF2605;" vertex="1" parent="1">
          <mxGeometry x="210" y="400" width="60" height="30" as="geometry" />
        </mxCell>
        <mxCell id="6O_0DVJVewbivAjLtHZU-44" value="Head" style="text;html=1;strokeColor=none;fillColor=none;align=center;verticalAlign=middle;whiteSpace=wrap;rounded=0;" vertex="1" parent="1">
          <mxGeometry x="210" y="500" width="60" height="30" as="geometry" />
        </mxCell>
        <mxCell id="6O_0DVJVewbivAjLtHZU-45" value="Head" style="text;html=1;strokeColor=none;fillColor=none;align=center;verticalAlign=middle;whiteSpace=wrap;rounded=0;" vertex="1" parent="1">
          <mxGeometry x="210" y="90" width="60" height="30" as="geometry" />
        </mxCell>
      </root>
    </mxGraphModel>
  </diagram>
</mxfile>
